<svg width="1600" height="900" viewBox="0 0 1600 900" fill="none" xmlns="http://www.w3.org/2000/svg">
  <defs>
    <linearGradient id="privacy-bg" x1="164" y1="90" x2="1448" y2="816" gradientUnits="userSpaceOnUse">
      <stop stop-color="#0F172A"/>
      <stop offset="1" stop-color="#155E75"/>
    </linearGradient>
    <linearGradient id="privacy-card" x1="320" y1="176" x2="1284" y2="764" gradientUnits="userSpaceOnUse">
      <stop stop-color="rgba(255,255,255,0.24)"/>
      <stop offset="1" stop-color="rgba(255,255,255,0.08)"/>
    </linearGradient>
  </defs>
  <rect width="1600" height="900" rx="48" fill="url(#privacy-bg)"/>
  <circle cx="1320" cy="180" r="170" fill="#34D399" fill-opacity="0.16"/>
  <circle cx="260" cy="740" r="220" fill="#67E8F9" fill-opacity="0.12"/>
  <rect x="210" y="140" width="1180" height="620" rx="36" fill="url(#privacy-card)" stroke="rgba(255,255,255,0.24)" stroke-width="2"/>
  <rect x="280" y="230" width="160" height="160" rx="28" fill="rgba(52,211,153,0.14)" stroke="rgba(52,211,153,0.4)" stroke-width="2"/>
  <path d="M360 270C395.346 270 424 298.654 424 334V356C424 431.111 382.287 492.154 320 526C257.713 492.154 216 431.111 216 356V334C216 298.654 244.654 270 280 270H360Z" fill="#34D399"/>
  <path d="M320 328C339.882 328 356 344.118 356 364C356 381.443 343.595 395.99 327.125 399.299V432H312.875V399.299C296.405 395.99 284 381.443 284 364C284 344.118 300.118 328 320 328Z" fill="#052E2B"/>
  <text x="500" y="300" fill="#E2E8F0" font-family="Inter, Arial, sans-serif" font-size="72" font-weight="700">Privacy Policy</text>
  <text x="500" y="364" fill="#B6E2DE" font-family="Inter, Arial, sans-serif" font-size="28" font-weight="500">Localized policy page with attachment cover and rich editor content</text>
  <rect x="500" y="430" width="730" height="18" rx="9" fill="rgba(255,255,255,0.22)"/>
  <rect x="500" y="474" width="660" height="18" rx="9" fill="rgba(255,255,255,0.16)"/>
  <rect x="500" y="518" width="700" height="18" rx="9" fill="rgba(255,255,255,0.16)"/>
  <rect x="500" y="562" width="610" height="18" rx="9" fill="rgba(255,255,255,0.16)"/>
  <rect x="500" y="626" width="212" height="56" rx="28" fill="#E2E8F0"/>
  <text x="548" y="662" fill="#0F172A" font-family="Inter, Arial, sans-serif" font-size="24" font-weight="700">Starter Demo</text>
</svg>
