<svg width="1600" height="900" viewBox="0 0 1600 900" fill="none" xmlns="http://www.w3.org/2000/svg">
  <defs>
    <linearGradient id="terms-bg" x1="178" y1="96" x2="1422" y2="812" gradientUnits="userSpaceOnUse">
      <stop stop-color="#1F2937"/>
      <stop offset="1" stop-color="#7C2D12"/>
    </linearGradient>
    <linearGradient id="terms-card" x1="240" y1="150" x2="1354" y2="768" gradientUnits="userSpaceOnUse">
      <stop stop-color="rgba(255,255,255,0.24)"/>
      <stop offset="1" stop-color="rgba(255,255,255,0.08)"/>
    </linearGradient>
  </defs>
  <rect width="1600" height="900" rx="48" fill="url(#terms-bg)"/>
  <circle cx="1260" cy="220" r="180" fill="#FDBA74" fill-opacity="0.12"/>
  <circle cx="300" cy="760" r="240" fill="#F59E0B" fill-opacity="0.10"/>
  <rect x="186" y="132" width="1228" height="636" rx="40" fill="url(#terms-card)" stroke="rgba(255,255,255,0.24)" stroke-width="2"/>
  <rect x="260" y="214" width="220" height="480" rx="32" fill="rgba(255,255,255,0.08)" stroke="rgba(255,255,255,0.18)" stroke-width="2"/>
  <rect x="300" y="274" width="140" height="12" rx="6" fill="#FDE68A"/>
  <rect x="300" y="314" width="140" height="12" rx="6" fill="rgba(255,255,255,0.24)"/>
  <rect x="300" y="354" width="140" height="12" rx="6" fill="rgba(255,255,255,0.24)"/>
  <rect x="300" y="394" width="96" height="12" rx="6" fill="rgba(255,255,255,0.24)"/>
  <path d="M356 470L392 506L356 542" stroke="#FDE68A" stroke-width="20" stroke-linecap="round" stroke-linejoin="round"/>
  <rect x="544" y="268" width="680" height="86" rx="24" fill="rgba(255,255,255,0.08)" stroke="rgba(255,255,255,0.16)" stroke-width="2"/>
  <text x="580" y="322" fill="#FFF7ED" font-family="Inter, Arial, sans-serif" font-size="66" font-weight="700">Terms &amp; Conditions</text>
  <text x="548" y="404" fill="#FED7AA" font-family="Inter, Arial, sans-serif" font-size="28" font-weight="500">System page baseline for localized rich content, attachments, and admin workflows</text>
  <rect x="548" y="470" width="612" height="18" rx="9" fill="rgba(255,255,255,0.22)"/>
  <rect x="548" y="514" width="684" height="18" rx="9" fill="rgba(255,255,255,0.16)"/>
  <rect x="548" y="558" width="642" height="18" rx="9" fill="rgba(255,255,255,0.16)"/>
  <rect x="548" y="602" width="530" height="18" rx="9" fill="rgba(255,255,255,0.16)"/>
  <rect x="548" y="654" width="248" height="56" rx="28" fill="#FFF7ED"/>
  <text x="604" y="690" fill="#7C2D12" font-family="Inter, Arial, sans-serif" font-size="24" font-weight="700">Legal Module</text>
</svg>
